<mxfile host="app.diagrams.net" modified="2023-10-12T14:50:00.269Z" agent="5.0 (Windows NT 10.0; Win64; x64) AppleWebKit/537.36 (KHTML, like Gecko) Chrome/117.0.0.0 Safari/537.36 OPR/103.0.0.0" etag="klKEiMHktFwPnv8eXl3c" version="20.8.23" type="github">
  <diagram name="PÃ¡gina-1" id="PeFRZRpTcFTFlqhPEzaA">
    <mxGraphModel dx="1380" dy="749" grid="1" gridSize="10" guides="1" tooltips="1" connect="1" arrows="1" fold="1" page="1" pageScale="1" pageWidth="827" pageHeight="1169" math="0" shadow="0">
      <root>
        <mxCell id="0" />
        <mxCell id="1" parent="0" />
        <mxCell id="PFIPDF3Z0oJWRJ1UbYJY-1" value="Mensajes" style="swimlane;childLayout=stackLayout;horizontal=1;startSize=30;horizontalStack=0;rounded=1;fontSize=14;fontStyle=0;strokeWidth=2;resizeParent=0;resizeLast=1;shadow=0;dashed=0;align=center;" vertex="1" parent="1">
          <mxGeometry x="320" y="20" width="200" height="140" as="geometry" />
        </mxCell>
        <mxCell id="PFIPDF3Z0oJWRJ1UbYJY-2" value="id_mensaje int(7) PK&#xa;mensaje varchar(280)&#xa;autor_mensaje varchar(50)&#xa;fecha_mensje timestamp" style="align=left;strokeColor=none;fillColor=none;spacingLeft=4;fontSize=12;verticalAlign=top;resizable=0;rotatable=0;part=1;" vertex="1" parent="PFIPDF3Z0oJWRJ1UbYJY-1">
          <mxGeometry y="30" width="200" height="110" as="geometry" />
        </mxCell>
      </root>
    </mxGraphModel>
  </diagram>
</mxfile>
